<svg id="a3a03e73-9973-4094-8d16-c07ccd711cdf" data-name="Layer 1" xmlns="http://www.w3.org/2000/svg" xmlns:xlink="http://www.w3.org/1999/xlink" viewBox="0 0 113.38583 98.56239"><defs><linearGradient id="ebd6cc3f-178f-4810-9a16-38cba148fc1a" x1="2.83465" y1="72.68" x2="116.22047" y2="72.68" gradientUnits="userSpaceOnUse"><stop offset="0" stop-color="#105c63"/><stop offset="1" stop-color="#127570"/></linearGradient><linearGradient id="b1f238e1-2ea1-4bf7-86e2-19fd0dd4cb53" x1="2.83465" y1="52.24526" x2="116.22047" y2="52.24526" gradientUnits="userSpaceOnUse"><stop offset="0" stop-color="#1a8770"/><stop offset="1" stop-color="#1c996c"/></linearGradient></defs><path d="M114.26,75.05638,64.28032,100.0462a12.012,12.012,0,0,1-9.50552,0L4.79516,75.05638c-2.614-1.307-2.614-3.44576,0-4.75277L54.7748,45.3138a12.012,12.012,0,0,1,9.50552,0L114.26,70.30361C116.874,71.61062,116.874,73.74937,114.26,75.05638Z" transform="translate(-2.83465 -2.46406)" style="opacity:0.85;fill:url(#ebd6cc3f-178f-4810-9a16-38cba148fc1a)"/><path d="M114.26,54.62164,64.28032,79.61146a12.012,12.012,0,0,1-9.50552,0L4.79516,54.62164c-2.614-1.307-2.614-3.44576,0-4.75276L54.7748,24.87906a12.012,12.012,0,0,1,9.50552,0L114.26,49.86888C116.874,51.17588,116.874,53.31463,114.26,54.62164Z" transform="translate(-2.83465 -2.46406)" style="opacity:0.85;fill:url(#b1f238e1-2ea1-4bf7-86e2-19fd0dd4cb53)"/><path d="M114.26,33.1869,64.28032,58.17672a12.012,12.012,0,0,1-9.50552,0L4.79516,33.1869c-2.614-1.307-2.614-3.44575,0-4.75276L54.7748,3.44432a12.012,12.012,0,0,1,9.50552,0L114.26,28.43414C116.874,29.74115,116.874,31.87989,114.26,33.1869Z" transform="translate(-2.83465 -2.46406)" style="fill:#4eb261;opacity:0.85"/></svg>