<svg xmlns="http://www.w3.org/2000/svg" xmlns:xlink="http://www.w3.org/1999/xlink" viewBox="0 0 468.6328 98.5624">
    <defs>
        <style>.a,.b,.c{opacity:0.85;}.a{fill:url(#a);}.b{fill:url(#b);}.c{fill:#4eb261;}.d{fill:#1e293b;}</style>
        <linearGradient id="a" x1="13.4567" y1="72.6799" x2="126.8425" y2="72.6799" gradientUnits="userSpaceOnUse">
            <stop offset="0" stop-color="#105c63" />
            <stop offset="1" stop-color="#127570" />
        </linearGradient>
        <linearGradient id="b" x1="13.4567" y1="52.2451" x2="126.8425" y2="52.2451" gradientUnits="userSpaceOnUse">
            <stop offset="0" stop-color="#1a8770" />
            <stop offset="1" stop-color="#1c996c" />
        </linearGradient>
    </defs>
    <g class="d">
        <path class="a" d="M124.882,75.0562l-49.98,24.99a12.012,12.012,0,0,1-9.5055,0l-49.98-24.99c-2.614-1.307-2.614-3.4457,0-4.7527l49.98-24.99a12.0112,12.0112,0,0,1,9.5055,0l49.98,24.99C127.496,71.6105,127.496,73.7492,124.882,75.0562Z" transform="translate(-13.4567 -2.4639)" />
        <path class="b" d="M124.882,54.6215l-49.98,24.99a12.012,12.012,0,0,1-9.5055,0l-49.98-24.99c-2.614-1.307-2.614-3.4458,0-4.7528l49.98-24.99a12.012,12.012,0,0,1,9.5055,0l49.98,24.99C127.496,51.1757,127.496,53.3145,124.882,54.6215Z" transform="translate(-13.4567 -2.4639)" />
        <path class="c" d="M124.882,33.1868l-49.98,24.99a12.012,12.012,0,0,1-9.5055,0l-49.98-24.99c-2.614-1.3071-2.614-3.4458,0-4.7528l49.98-24.99a12.012,12.012,0,0,1,9.5055,0l49.98,24.99C127.496,29.741,127.496,31.88,124.882,33.1868Z" transform="translate(-13.4567 -2.4639)" />
        <path d="M188.3337,36.6117l.5757,3.3921a14.5807,14.5807,0,0,1,10.4311-4.0957c7.1035,0,12.543,4.3515,12.543,16.6386,0,13.2471-6.2071,18.1748-13.5664,18.1748a12.2171,12.2171,0,0,1-8.8316-3.2V83.52h-9.3432V36.6117Zm7.1675,26.3657c4.48,0,6.271-3.7109,6.271-10.1748,0-6.7192-1.9834-9.2153-5.8873-9.2153a10.8658,10.8658,0,0,0-6.2075,2.56V60.7381A9.7962,9.7962,0,0,0,195.5012,62.9774Z" transform="translate(-13.4567 -2.4639)" />
        <path d="M227.5641,48.3871V69.953h-9.663V36.6117h8.2558l.7041,5.248c2.2393-3.2641,5.375-5.9516,10.4951-5.9516a15.0583,15.0583,0,0,1,1.6641.0639v9.4073A16.4815,16.4815,0,0,0,227.5641,48.3871Z" transform="translate(-13.4567 -2.4639)" />
        <path d="M248.1091,32.26c-3.7119,0-5.8233-2.1758-5.8233-5.8877s2.1114-5.8232,5.8233-5.8232c3.6484,0,5.8242,2.1118,5.8242,5.8232S251.7575,32.26,248.1091,32.26ZM243.2458,69.953V36.6117h9.6631V69.953Z" transform="translate(-13.4567 -2.4639)" />
        <path d="M260.2038,69.953V36.6117h8.1914l.4482,3.1357a15.3071,15.3071,0,0,1,10.1114-3.8393c3.9677,0,6.9756,1.1518,8.5117,4.16a14.1713,14.1713,0,0,1,10.3672-4.16c6.6552,0,9.9834,3.6474,9.9834,11.0712V69.953H298.153V48.515c0-3.1357-.96-4.8-3.7754-4.8a8.7186,8.7186,0,0,0-5.5039,2.3042c0,.2558.0645.5117.0645.8315V69.953h-9.6631V48.515c0-3.1357-.96-4.8-3.7119-4.8a9.0028,9.0028,0,0,0-5.6963,2.3682v23.87Z" transform="translate(-13.4567 -2.4639)" />
        <path d="M343.9782,64.1932a6.664,6.664,0,0,0,1.9834-.3838l.2568,5.5674a16.8061,16.8061,0,0,1-6.1435,1.28c-3.84,0-6.1436-1.0879-6.8477-4.2236-2.1123,2.7519-5.3115,4.288-9.92,4.288-8.3193,0-9.9189-5.5683-9.9189-8.8955,0-10.1753,10.56-11.7109,19.1347-11.6469V48.9632c0-3.7758-.5117-6.08-4.7353-6.08-3.2,0-4.416,1.3438-5.0557,4.6075l-8.1914-1.6c1.0234-6.2715,4.9912-9.9829,14.0781-9.9829,8.8955,0,13.376,3.4555,13.376,11.7749V61.6336C341.9948,63.4256,342.3141,64.1932,343.9782,64.1932Zm-20.8623-3.9678c0,1.92.832,3.6485,3.9033,3.6485a8.5747,8.5747,0,0,0,5.5674-2.1758V55.81h-1.5352C326.443,55.9383,323.1159,56.8338,323.1159,60.2254Z" transform="translate(-13.4567 -2.4639)" />
        <path d="M371.1774,69.953V48.8348c0-3.5835-1.4072-5.12-4.415-5.12a10.73,10.73,0,0,0-6.5283,2.624V69.953H350.571V36.6117h8.5752l.5127,3.3281a15.58,15.58,0,0,1,10.623-4.0317c7.3594,0,10.56,3.6474,10.56,11.2631V69.953Z" transform="translate(-13.4567 -2.4639)" />
        <path d="M386.4118,53.4422c0-10.687,5.5674-17.5341,17.15-17.5341s16.0635,6.9755,16.0635,16.8305c0,10.8794-4.9922,17.9829-16.959,17.9829C390.572,70.7215,386.4118,63.4256,386.4118,53.4422Zm23.166-.3837c0-7.2955-1.9834-9.855-6.2715-9.855-4.3515,0-6.7832,2.7519-6.7832,9.9829,0,7.4238,1.8555,10.3672,6.5918,10.3672C407.3386,63.5536,409.5778,60.8661,409.5778,53.0585Z" transform="translate(-13.4567 -2.4639)" />
        <path d="M437.2263,70.7215c-6.9756,0-10.6231-3.2-10.6231-10.8154V43.6512H421.612v-7.04h4.9912v-9.855l9.6631-1.28V36.6117h8.832v7.04h-8.832V58.5624c0,2.9433.832,4.4794,3.9043,4.4794a12.0732,12.0732,0,0,0,5.5029-1.5361l1.3447,6.8477A20.1559,20.1559,0,0,1,437.2263,70.7215Z" transform="translate(-13.4567 -2.4639)" />
        <path d="M479.8493,64.1932a6.664,6.664,0,0,0,1.9834-.3838l.2568,5.5674a16.8061,16.8061,0,0,1-6.1435,1.28c-3.84,0-6.1436-1.0879-6.8477-4.2236-2.1123,2.7519-5.3115,4.288-9.92,4.288-8.3193,0-9.9189-5.5683-9.9189-8.8955,0-10.1753,10.56-11.7109,19.1347-11.6469V48.9632c0-3.7758-.5117-6.08-4.7353-6.08-3.2,0-4.416,1.3438-5.0557,4.6075l-8.1914-1.6c1.0234-6.2715,4.9912-9.9829,14.0781-9.9829,8.8955,0,13.376,3.4555,13.376,11.7749V61.6336C477.8659,63.4256,478.1852,64.1932,479.8493,64.1932ZM458.987,60.2254c0,1.92.832,3.6485,3.9033,3.6485a8.5747,8.5747,0,0,0,5.5674-2.1758V55.81h-1.5352C462.3141,55.9383,458.987,56.8338,458.987,60.2254Z" transform="translate(-13.4567 -2.4639)" />
    </g>
</svg>